<svg width="212" height="94" viewBox="0 0 212 94" fill="none" xmlns="http://www.w3.org/2000/svg">
<path fill-rule="evenodd" clip-rule="evenodd" d="M72.8103 40.3456C72.2356 41.0938 71.555 41.6872 70.7685 42.126C69.8761 42.6238 68.8349 42.8727 67.6451 42.8727C66.3932 42.8727 65.2777 42.6176 64.2985 42.1073C63.3318 41.597 62.5137 40.8814 61.8444 39.9604C61.1875 39.0393 60.6855 37.9565 60.3385 36.7119C59.9914 35.4673 59.8179 34.1107 59.8179 32.642V32.25C59.8179 30.7067 59.9914 29.3065 60.3385 28.0494C60.6855 26.7799 61.1937 25.6909 61.863 24.7823C62.5323 23.8738 63.3566 23.1706 64.3357 22.6727C65.3149 22.1749 66.4304 21.926 67.6822 21.926C68.8597 21.926 69.8885 22.1749 70.7685 22.6727C71.4328 23.0433 72.0215 23.5311 72.5347 24.1362V13.8235H77.9263V42.4994H73.0739L72.8103 40.3456ZM72.5347 28.3256C72.4025 28.0473 72.2476 27.7934 72.0699 27.564C71.7352 27.116 71.3138 26.7675 70.8057 26.5186C70.3099 26.2696 69.7211 26.1452 69.0394 26.1452C68.3453 26.1452 67.7504 26.307 67.2546 26.6306C66.7589 26.9417 66.356 27.3711 66.0462 27.9188C65.7487 28.4664 65.5256 29.1136 65.3769 29.8603C65.2405 30.5947 65.1724 31.3912 65.1724 32.25V32.642C65.1724 33.4759 65.2343 34.2538 65.3583 34.9757C65.4946 35.6976 65.7115 36.3385 66.009 36.8986C66.3188 37.4462 66.7155 37.8756 67.1989 38.1868C67.6946 38.4855 68.2958 38.6348 69.0023 38.6348C69.9194 38.6348 70.6755 38.4295 71.2705 38.0188C71.8084 37.6361 72.2298 37.1263 72.5347 36.4893V28.3256ZM30.2756 33.4822H35.8345C35.723 35.3117 35.221 36.936 34.3286 38.3548C33.4486 39.7737 32.2153 40.8814 30.6288 41.6779C29.0547 42.4745 27.1584 42.8727 24.9398 42.8727C23.2045 42.8727 21.649 42.574 20.2732 41.9766C18.8974 41.3668 17.72 40.4955 16.7408 39.3629C15.774 38.2303 15.0366 36.8613 14.5284 35.2557C14.0202 33.6502 13.7661 31.8517 13.7661 29.8603V27.9748C13.7661 25.9834 14.0264 24.1849 14.547 22.5794C15.0799 20.9614 15.836 19.5861 16.8152 18.4535C17.8067 17.3209 18.9904 16.4497 20.3662 15.8398C21.742 15.23 23.2789 14.925 24.9769 14.925C27.2328 14.925 29.1353 15.3357 30.6846 16.1572C32.2463 16.9786 33.4548 18.1112 34.31 19.555C35.1776 20.9987 35.6982 22.6416 35.8717 24.4836H30.2942C30.2322 23.3884 30.0153 22.4611 29.6435 21.7019C29.2716 20.9303 28.7077 20.3515 27.9516 19.9657C27.208 19.5674 26.2164 19.3683 24.9769 19.3683C24.0474 19.3683 23.2355 19.5425 22.5414 19.891C21.8473 20.2395 21.2648 20.7685 20.7938 21.4779C20.3228 22.1873 19.9696 23.0834 19.7341 24.1663C19.511 25.2366 19.3994 26.4937 19.3994 27.9374V29.8603C19.3994 31.2668 19.5048 32.5051 19.7155 33.5755C19.9262 34.6334 20.2484 35.5295 20.6823 36.2639C21.1285 36.9857 21.6986 37.5334 22.3927 37.9067C23.0992 38.2677 23.9482 38.4482 24.9398 38.4482C26.1048 38.4482 27.0654 38.2615 27.8215 37.8881C28.5776 37.5147 29.1539 36.9608 29.5505 36.2265C29.9595 35.4922 30.2012 34.5774 30.2756 33.4822ZM38.3072 32.6047V32.2127C38.3072 30.7316 38.518 29.3687 38.9394 28.1241C39.3608 26.8671 39.9743 25.778 40.78 24.857C41.5856 23.936 42.5772 23.2204 43.7546 22.7101C44.9321 22.1873 46.2831 21.926 47.8076 21.926C49.3322 21.926 50.6894 22.1873 51.8792 22.7101C53.0691 23.2204 54.0669 23.936 54.8725 24.857C55.6906 25.778 56.3103 26.8671 56.7317 28.1241C57.1531 29.3687 57.3638 30.7316 57.3638 32.2127V32.6047C57.3638 34.0734 57.1531 35.4362 56.7317 36.6933C56.3103 37.9379 55.6906 39.0269 54.8725 39.9604C54.0669 40.8814 53.0753 41.597 51.8978 42.1073C50.7204 42.6176 49.3694 42.8727 47.8448 42.8727C46.3203 42.8727 44.9631 42.6176 43.7732 42.1073C42.5957 41.597 41.598 40.8814 40.78 39.9604C39.9743 39.0269 39.3608 37.9379 38.9394 36.6933C38.518 35.4362 38.3072 34.0734 38.3072 32.6047ZM43.6617 32.2127V32.6047C43.6617 33.451 43.736 34.2414 43.8848 34.9757C44.0335 35.71 44.269 36.3572 44.5913 36.9173C44.9259 37.4649 45.3597 37.8943 45.8927 38.2055C46.4257 38.5166 47.0764 38.6722 47.8448 38.6722C48.5885 38.6722 49.2268 38.5166 49.7598 38.2055C50.2927 37.8943 50.7204 37.4649 51.0426 36.9173C51.3649 36.3572 51.6004 35.71 51.7491 34.9757C51.9102 34.2414 51.9908 33.451 51.9908 32.6047V32.2127C51.9908 31.3912 51.9102 30.6196 51.7491 29.8977C51.6004 29.1634 51.3587 28.5162 51.024 27.9561C50.7018 27.3836 50.2741 26.9355 49.7412 26.6119C49.2082 26.2883 48.5637 26.1265 47.8076 26.1265C47.0516 26.1265 46.4071 26.2883 45.8741 26.6119C45.3535 26.9355 44.9259 27.3836 44.5913 27.9561C44.269 28.5162 44.0335 29.1634 43.8848 29.8977C43.736 30.6196 43.6617 31.3912 43.6617 32.2127ZM91.3682 42.8727C89.8064 42.8727 88.4059 42.6238 87.1664 42.126C85.927 41.6157 84.8734 40.9125 84.0058 40.0164C83.1506 39.1202 82.4937 38.081 82.0351 36.8986C81.5765 35.7038 81.3472 34.4343 81.3472 33.0901V32.3433C81.3472 30.8125 81.5641 29.4123 81.9979 28.1428C82.4317 26.8733 83.0514 25.7718 83.8571 24.8383C84.6751 23.9049 85.6667 23.1892 86.8318 22.6914C87.9968 22.1811 89.3107 21.926 90.7732 21.926C92.1986 21.926 93.4628 22.1624 94.5659 22.6354C95.6691 23.1083 96.5924 23.7804 97.3361 24.6517C98.0922 25.5229 98.6623 26.5684 99.0466 27.7881C99.4308 28.9953 99.6229 30.3395 99.6229 31.8206V34.0609H86.7773C86.8314 34.5055 86.9239 34.9287 87.0549 35.3304C87.2904 36.0149 87.6188 36.6061 88.0402 37.104C88.474 37.6018 88.9946 37.9876 89.6019 38.2615C90.2217 38.5353 90.922 38.6722 91.7028 38.6722C92.6696 38.6722 93.5682 38.4855 94.3986 38.1121C95.2414 37.7263 95.9665 37.1475 96.5738 36.3759L99.1767 39.2136C98.7553 39.8234 98.1789 40.4084 97.4477 40.9685C96.7288 41.5286 95.8612 41.9891 94.8448 42.35C93.8285 42.6985 92.6696 42.8727 91.3682 42.8727ZM86.9433 29.879C86.9047 30.0731 86.871 30.2722 86.8424 30.4764H94.3614V30.0657C94.3614 29.3189 94.2251 28.6531 93.9524 28.0681C93.6921 27.4707 93.2955 26.9977 92.7625 26.6493C92.2296 26.3008 91.5479 26.1265 90.7174 26.1265C90.011 26.1265 89.4036 26.2821 88.8954 26.5932C88.3873 26.9044 87.9721 27.34 87.6498 27.9001C87.3399 28.4602 87.1044 29.1198 86.9433 29.879ZM108.026 28.1721V42.4994H102.653V22.2993H107.692L107.877 24.6122C108.533 23.7745 109.332 23.1218 110.276 22.6541C111.255 22.1687 112.389 21.926 113.678 21.926C114.571 21.926 115.389 22.0629 116.132 22.3367C116.876 22.598 117.514 23.015 118.047 23.5875C118.433 23.984 118.757 24.4677 119.019 25.0388C119.107 24.9068 119.198 24.7777 119.293 24.6517C119.95 23.7929 120.762 23.127 121.729 22.6541C122.695 22.1687 123.811 21.926 125.075 21.926C126.042 21.926 126.922 22.0691 127.715 22.3553C128.508 22.6292 129.184 23.071 129.742 23.6809C130.312 24.2783 130.746 25.0624 131.043 26.0332C131.353 27.004 131.508 28.1926 131.508 29.599V42.4994H126.135V29.599C126.135 28.6655 126.011 27.9561 125.763 27.4707C125.527 26.9729 125.18 26.6306 124.722 26.4439C124.276 26.2448 123.743 26.1452 123.123 26.1452C122.478 26.1452 121.914 26.2759 121.431 26.5372C120.948 26.7862 120.545 27.1347 120.223 27.5827C120.037 27.8405 119.878 28.123 119.746 28.4303C119.754 28.6223 119.758 28.819 119.758 29.0202V42.4994H114.403V29.6176C114.403 28.6966 114.279 27.9872 114.032 27.4894C113.784 26.9915 113.43 26.643 112.972 26.4439C112.526 26.2448 111.986 26.1452 111.354 26.1452C110.66 26.1452 110.053 26.2883 109.532 26.5746C109.024 26.8608 108.603 27.2591 108.268 27.7694C108.182 27.8978 108.101 28.0321 108.026 28.1721ZM141.008 50.2657V40.745C141.511 41.3081 142.087 41.7684 142.737 42.126C143.642 42.6238 144.708 42.8727 145.935 42.8727C147.199 42.8727 148.315 42.6176 149.282 42.1073C150.261 41.5846 151.079 40.8627 151.736 39.9417C152.393 39.0082 152.888 37.913 153.223 36.6559C153.57 35.3989 153.744 34.036 153.744 32.5674V32.1753C153.744 30.6444 153.57 29.2505 153.223 27.9934C152.888 26.7364 152.386 25.6536 151.717 24.745C151.06 23.8364 150.242 23.1395 149.263 22.6541C148.296 22.1687 147.174 21.926 145.898 21.926C144.683 21.926 143.623 22.1749 142.719 22.6727C141.995 23.0762 141.362 23.6145 140.818 24.2877L140.618 22.2993H135.654V50.2657H141.008ZM142.217 38.0374C141.694 37.666 141.292 37.1796 141.008 36.578V28.1937C141.122 27.9532 141.252 27.7309 141.399 27.5267C141.721 27.0786 142.136 26.7364 142.644 26.4999C143.165 26.2634 143.791 26.1452 144.522 26.1452C145.216 26.1452 145.805 26.3008 146.288 26.6119C146.784 26.9106 147.181 27.3338 147.478 27.8814C147.788 28.429 148.011 29.07 148.147 29.8043C148.296 30.5262 148.371 31.3165 148.371 32.1753V32.5674C148.371 33.4137 148.302 34.204 148.166 34.9384C148.042 35.6727 147.825 36.3199 147.515 36.8799C147.218 37.44 146.827 37.8819 146.344 38.2055C145.861 38.5166 145.266 38.6722 144.559 38.6722C143.592 38.6722 142.812 38.4606 142.217 38.0374ZM162.723 42.4994V22.2993H157.35V42.4994H162.723ZM157.834 15.093C157.288 15.6033 157.016 16.2505 157.016 17.0346C157.016 17.8187 157.288 18.4659 157.834 18.9762C158.379 19.4865 159.11 19.7417 160.028 19.7417C160.932 19.7417 161.657 19.4865 162.203 18.9762C162.761 18.4659 163.039 17.8187 163.039 17.0346C163.039 16.2505 162.761 15.6033 162.203 15.093C161.657 14.5828 160.932 14.3276 160.028 14.3276C159.11 14.3276 158.379 14.5828 157.834 15.093ZM172.503 42.4994V29.1757C172.678 28.7812 172.907 28.4369 173.191 28.1428C173.562 27.7694 174.021 27.4894 174.566 27.3027C175.124 27.1035 175.781 27.004 176.537 27.004C176.835 27.004 177.163 27.0226 177.522 27.06C177.894 27.0849 178.21 27.116 178.471 27.1533L178.564 22.1687C178.365 22.094 178.111 22.038 177.801 22.0006C177.491 21.9508 177.188 21.926 176.89 21.926C175.948 21.926 175.112 22.15 174.38 22.598C173.649 23.0461 173.029 23.6809 172.521 24.5023C172.467 24.5914 172.415 24.6821 172.364 24.7745L172.187 22.2993H167.148V42.4994H172.503ZM185.777 42.126C187.017 42.6238 188.417 42.8727 189.979 42.8727C191.28 42.8727 192.439 42.6985 193.456 42.35C194.472 41.9891 195.34 41.5286 196.058 40.9685C196.79 40.4084 197.366 39.8234 197.787 39.2136L195.185 36.3759C194.577 37.1475 193.852 37.7263 193.009 38.1121C192.179 38.4855 191.28 38.6722 190.314 38.6722C189.533 38.6722 188.832 38.5353 188.213 38.2615C187.605 37.9876 187.085 37.6018 186.651 37.104C186.23 36.6061 185.901 36.0149 185.666 35.3304C185.535 34.9287 185.442 34.5055 185.388 34.0609H198.234V31.8206C198.234 30.3395 198.042 28.9953 197.657 27.7881C197.273 26.5684 196.703 25.5229 195.947 24.6517C195.203 23.7804 194.28 23.1083 193.177 22.6354C192.074 22.1624 190.809 21.926 189.384 21.926C187.921 21.926 186.608 22.1811 185.443 22.6914C184.277 23.1892 183.286 23.9049 182.468 24.8383C181.662 25.7718 181.042 26.8733 180.609 28.1428C180.175 29.4123 179.958 30.8125 179.958 32.3433V33.0901C179.958 34.4343 180.187 35.7038 180.646 36.8986C181.104 38.081 181.761 39.1202 182.617 40.0164C183.484 40.9125 184.538 41.6157 185.777 42.126ZM185.453 30.4764C185.482 30.2722 185.515 30.0731 185.554 29.879C185.715 29.1198 185.951 28.4602 186.261 27.9001C186.583 27.34 186.998 26.9044 187.506 26.5932C188.014 26.2821 188.622 26.1265 189.328 26.1265C190.159 26.1265 190.84 26.3008 191.373 26.6493C191.906 26.9977 192.303 27.4707 192.563 28.0681C192.836 28.6531 192.972 29.3189 192.972 30.0657V30.4764H185.453ZM64.8005 79.3336H61.361V61.7846H58.1818V59.1336H61.361V57.0053C61.361 55.5491 61.6213 54.3232 62.1419 53.3275C62.6749 52.3193 63.4371 51.5601 64.4287 51.0498C65.4202 50.5271 66.5977 50.2657 67.9611 50.2657C68.3577 50.2657 68.7544 50.2906 69.151 50.3404C69.56 50.3902 69.9566 50.4649 70.3409 50.5644L70.1549 53.3835C69.8947 53.3212 69.5972 53.2777 69.2625 53.2528C68.9403 53.2279 68.618 53.2155 68.2958 53.2155C67.5645 53.2155 66.9324 53.3648 66.3994 53.6635C65.8788 53.9498 65.4822 54.3729 65.2095 54.933C64.9369 55.4931 64.8005 56.1838 64.8005 57.0053V59.1336H69.0766V61.7846H64.8005V79.3336ZM34.5889 70.6898H31.0193C30.821 71.9593 30.4863 73.0483 30.0153 73.9569C29.5567 74.8654 28.875 75.5624 27.9702 76.0478C27.0654 76.5332 25.8508 76.7759 24.3262 76.7759C23.124 76.7759 22.0828 76.527 21.2028 76.0291C20.3228 75.5189 19.5977 74.8219 19.0276 73.9382C18.4574 73.0545 18.0298 72.0277 17.7448 70.8578C17.4721 69.6879 17.3357 68.437 17.3357 67.1053V64.3609C17.3357 62.9172 17.4907 61.6041 17.8005 60.4217C18.1104 59.2394 18.569 58.225 19.1763 57.3787C19.796 56.5323 20.5583 55.8789 21.4631 55.4184C22.3803 54.9579 23.44 54.7276 24.6423 54.7276C26.0429 54.7276 27.177 54.9766 28.0446 55.4744C28.9122 55.9723 29.5815 56.6817 30.0525 57.6027C30.5235 58.5113 30.8458 59.6003 31.0193 60.8698H34.5889C34.403 59.0776 33.9134 57.5031 33.1201 56.1465C32.3393 54.7774 31.2424 53.7071 29.8294 52.9354C28.4164 52.1638 26.6874 51.7779 24.6423 51.7779C22.969 51.7779 21.4631 52.0766 20.1245 52.674C18.7859 53.2715 17.6394 54.124 16.685 55.2317C15.743 56.3394 15.018 57.6712 14.5098 59.2269C14.014 60.7702 13.7661 62.494 13.7661 64.3983V67.1053C13.7661 69.0095 14.014 70.7396 14.5098 72.2953C15.018 73.8386 15.7368 75.1641 16.6664 76.2718C17.596 77.3671 18.7053 78.2134 19.9944 78.8109C21.2958 79.4083 22.7397 79.707 24.3262 79.707C26.4953 79.707 28.3049 79.3149 29.755 78.5308C31.2052 77.7343 32.3269 76.6577 33.1201 75.3011C33.9134 73.9444 34.403 72.4073 34.5889 70.6898ZM50.8971 77.1985C50.7333 77.3708 50.5587 77.5411 50.3733 77.7094C49.7412 78.2819 48.9851 78.7611 48.1051 79.1469C47.2375 79.5203 46.2583 79.707 45.1676 79.707C43.8042 79.707 42.6081 79.4394 41.5794 78.9042C40.563 78.369 39.7698 77.6534 39.1997 76.7572C38.6419 75.8487 38.363 74.8343 38.363 73.7142C38.363 72.6314 38.5737 71.6792 38.9951 70.8578C39.4166 70.0239 40.0239 69.3331 40.8171 68.7855C41.6104 68.2254 42.5648 67.8023 43.6803 67.516C44.7958 67.2298 46.0414 67.0866 47.4172 67.0866H50.8195V65.4811C50.8195 64.6845 50.6584 63.9938 50.3361 63.4088C50.0263 62.8114 49.5553 62.3509 48.9231 62.0273C48.291 61.7037 47.5102 61.5419 46.5806 61.5419C45.713 61.5419 44.9507 61.6912 44.2938 61.9899C43.6493 62.2887 43.1411 62.6807 42.7693 63.1661C42.4098 63.6515 42.2301 64.1742 42.2301 64.7343H38.7906C38.7906 64.0124 38.9766 63.2968 39.3484 62.5874C39.7202 61.8779 40.2532 61.237 40.9473 60.6644C41.6538 60.0795 42.4966 59.619 43.4758 59.2829C44.4673 58.9344 45.5704 58.7602 46.7851 58.7602C48.2476 58.7602 49.5367 59.0091 50.6522 59.507C51.7801 60.0048 52.6601 60.7578 53.2922 61.7659C53.9367 62.7616 54.259 64.0124 54.259 65.5184V74.9277C54.259 75.5998 54.3148 76.3154 54.4263 77.0746C54.5503 77.8338 54.73 78.4873 54.9655 79.0349V79.3336H51.3773C51.2037 78.9353 51.0674 78.4064 50.9682 77.7467C50.9407 77.5601 50.917 77.3774 50.8971 77.1985ZM50.8195 73.6543C50.7015 73.8895 50.5528 74.1273 50.3733 74.3676C49.9023 75.0148 49.264 75.5624 48.4584 76.0105C47.6527 76.4585 46.7231 76.6826 45.6696 76.6826C44.8268 76.6826 44.1141 76.5332 43.5315 76.2345C42.9614 75.9234 42.5338 75.5064 42.2487 74.9837C41.9636 74.4609 41.8211 73.8822 41.8211 73.2474C41.8211 72.6251 41.9574 72.0837 42.2301 71.6232C42.5028 71.1503 42.8994 70.7582 43.42 70.4471C43.9406 70.1359 44.5851 69.9057 45.3535 69.7563C46.122 69.5945 46.9958 69.5136 47.975 69.5136H50.8195V73.6543ZM76.9967 78.9975C78.137 79.4705 79.4074 79.707 80.808 79.707C82.1342 79.707 83.2807 79.5203 84.2475 79.1469C85.2267 78.7735 86.0509 78.2881 86.7202 77.6907C87.3895 77.0933 87.9411 76.4648 88.3749 75.8051L86.2926 74.1436C85.6605 74.9775 84.923 75.6433 84.0802 76.1412C83.2374 76.639 82.2086 76.8879 80.9939 76.8879C80.052 76.8879 79.2091 76.7075 78.4655 76.3465C77.7342 75.9856 77.1083 75.4877 76.5877 74.853C76.0795 74.2182 75.6891 73.4839 75.4164 72.65C75.1799 71.8811 75.0509 71.0658 75.0293 70.2044H88.6352V68.6548C88.6352 67.236 88.474 65.9291 88.1518 64.7343C87.8295 63.527 87.3337 62.4816 86.6644 61.5979C85.9951 60.7018 85.1337 60.0048 84.0802 59.507C83.039 59.0091 81.7996 58.7602 80.3618 58.7602C79.2339 58.7602 78.1432 58.9904 77.0897 59.4509C76.0361 59.9114 75.0942 60.5898 74.2637 61.4859C73.4333 62.382 72.7764 63.4773 72.293 64.7717C71.8096 66.0536 71.5679 67.516 71.5679 69.1589V69.943C71.5679 71.3619 71.7848 72.6687 72.2186 73.8635C72.6524 75.0584 73.2722 76.0914 74.0778 76.9626C74.8958 77.8338 75.8688 78.5121 76.9967 78.9975ZM75.1299 67.3853C75.1949 66.8664 75.2904 66.381 75.4164 65.9291C75.6767 64.9957 76.0423 64.2054 76.5133 63.5582C76.9843 62.911 77.5483 62.4256 78.2052 62.102C78.8621 61.7659 79.581 61.5979 80.3618 61.5979C81.5393 61.5979 82.4689 61.8717 83.1506 62.4193C83.8323 62.967 84.3281 63.6639 84.6379 64.5103C84.9602 65.3566 85.1461 66.2278 85.1957 67.124V67.3853H75.1299Z" fill="#131316"/>
</svg>
