<svg width="127" height="57" viewBox="0 0 127 57" fill="none" xmlns="http://www.w3.org/2000/svg">
<path fill-rule="evenodd" clip-rule="evenodd" d="M43.3764 24.6757C43.0341 25.1214 42.6286 25.4749 42.16 25.7363C41.6284 26.0329 41.0081 26.1812 40.2993 26.1812C39.5535 26.1812 38.8889 26.0292 38.3056 25.7252C37.7296 25.4212 37.2423 24.9949 36.8436 24.4462C36.4522 23.8975 36.1532 23.2524 35.9464 22.5109C35.7397 21.7695 35.6363 20.9613 35.6363 20.0863V19.8528C35.6363 18.9333 35.7397 18.0992 35.9464 17.3503C36.1532 16.594 36.4559 15.9452 36.8546 15.4039C37.2534 14.8627 37.7444 14.4437 38.3277 14.1472C38.9111 13.8506 39.5756 13.7023 40.3214 13.7023C41.0229 13.7023 41.6358 13.8506 42.16 14.1472C42.5558 14.3679 42.9065 14.6585 43.2122 15.019V8.87531H46.4243V25.9588H43.5334L43.3764 24.6757ZM43.2122 17.5148C43.1335 17.349 43.0412 17.1978 42.9353 17.0611C42.736 16.7942 42.4849 16.5866 42.1822 16.4383C41.8868 16.29 41.5361 16.2159 41.13 16.2159C40.7165 16.2159 40.362 16.3122 40.0667 16.505C39.7713 16.6904 39.5313 16.9462 39.3467 17.2724C39.1695 17.5987 39.0366 17.9843 38.948 18.4291C38.8668 18.8666 38.8262 19.3412 38.8262 19.8528V20.0863C38.8262 20.5831 38.8631 21.0465 38.9369 21.4766C39.0181 21.9066 39.1474 22.2885 39.3246 22.6222C39.5092 22.9484 39.7455 23.2042 40.0334 23.3896C40.3288 23.5675 40.6869 23.6565 41.1078 23.6565C41.6542 23.6565 42.1046 23.5342 42.4591 23.2895C42.7796 23.0615 43.0306 22.7578 43.2122 22.3783V17.5148ZM18.0366 20.5868H21.3483C21.2819 21.6768 20.9828 22.6444 20.4512 23.4897C19.9269 24.3349 19.1922 24.9949 18.2471 25.4694C17.3093 25.9439 16.1795 26.1812 14.8578 26.1812C13.8241 26.1812 12.8974 26.0033 12.0778 25.6474C11.2581 25.284 10.5567 24.765 9.97332 24.0903C9.39737 23.4155 8.95803 22.5999 8.65529 21.6434C8.35254 20.6869 8.20117 19.6155 8.20117 18.4291V17.3058C8.20117 16.1195 8.35624 15.048 8.66636 14.0915C8.98387 13.1276 9.43429 12.3083 10.0176 11.6336C10.6083 10.9588 11.3135 10.4398 12.1331 10.0765C12.9528 9.71317 13.8684 9.53151 14.88 9.53151C16.2238 9.53151 17.3573 9.77619 18.2803 10.2656C19.2107 10.7549 19.9306 11.4297 20.4401 12.2898C20.957 13.1499 21.2671 14.1286 21.3705 15.226H18.0477C18.0108 14.5735 17.8815 14.0211 17.66 13.5688C17.4385 13.1091 17.1025 12.7643 16.6521 12.5345C16.2091 12.2972 15.6184 12.1786 14.88 12.1786C14.3262 12.1786 13.8425 12.2824 13.429 12.49C13.0155 12.6976 12.6685 13.0127 12.3879 13.4353C12.1073 13.858 11.8968 14.3918 11.7566 15.0369C11.6236 15.6746 11.5572 16.4235 11.5572 17.2836V18.4291C11.5572 19.267 11.6199 20.0048 11.7455 20.6424C11.871 21.2727 12.063 21.8065 12.3214 22.244C12.5872 22.6741 12.9269 23.0003 13.3404 23.2227C13.7613 23.4378 14.2671 23.5453 14.8578 23.5453C15.5519 23.5453 16.1242 23.4341 16.5746 23.2116C17.025 22.9892 17.3684 22.6592 17.6047 22.2218C17.8483 21.7843 17.9923 21.2393 18.0366 20.5868ZM22.8214 20.0641V19.8305C22.8214 18.9482 22.9469 18.1363 23.198 17.3948C23.4491 16.6459 23.8146 15.9971 24.2945 15.4484C24.7745 14.8997 25.3652 14.4734 26.0667 14.1694C26.7682 13.858 27.573 13.7023 28.4812 13.7023C29.3895 13.7023 30.198 13.858 30.9069 14.1694C31.6157 14.4734 32.2101 14.8997 32.6901 15.4484C33.1774 15.9971 33.5466 16.6459 33.7977 17.3948C34.0487 18.1363 34.1743 18.9482 34.1743 19.8305V20.0641C34.1743 20.939 34.0487 21.7509 33.7977 22.4998C33.5466 23.2413 33.1774 23.8901 32.6901 24.4462C32.2101 24.9949 31.6194 25.4212 30.9179 25.7252C30.2165 26.0292 29.4116 26.1812 28.5034 26.1812C27.5952 26.1812 26.7866 26.0292 26.0777 25.7252C25.3763 25.4212 24.7819 24.9949 24.2945 24.4462C23.8146 23.8901 23.4491 23.2413 23.198 22.4998C22.9469 21.7509 22.8214 20.939 22.8214 20.0641ZM26.0113 19.8305V20.0641C26.0113 20.5683 26.0556 21.0391 26.1442 21.4766C26.2328 21.9141 26.3731 22.2996 26.5651 22.6333C26.7645 22.9595 27.0229 23.2153 27.3404 23.4007C27.6579 23.5861 28.0456 23.6787 28.5034 23.6787C28.9464 23.6787 29.3267 23.5861 29.6442 23.4007C29.9617 23.2153 30.2165 22.9595 30.4084 22.6333C30.6004 22.2996 30.7407 21.9141 30.8293 21.4766C30.9253 21.0391 30.9733 20.5683 30.9733 20.0641V19.8305C30.9733 19.3412 30.9253 18.8814 30.8293 18.4514C30.7407 18.0139 30.5967 17.6284 30.3974 17.2947C30.2054 16.9536 29.9506 16.6867 29.6331 16.4939C29.3156 16.3011 28.9317 16.2047 28.4812 16.2047C28.0308 16.2047 27.6468 16.3011 27.3293 16.4939C27.0192 16.6867 26.7645 16.9536 26.5651 17.2947C26.3731 17.6284 26.2328 18.0139 26.1442 18.4514C26.0556 18.8814 26.0113 19.3412 26.0113 19.8305ZM54.4322 26.1812C53.5018 26.1812 52.6674 26.0329 51.929 25.7363C51.1906 25.4323 50.563 25.0134 50.0461 24.4795C49.5366 23.9457 49.1453 23.3266 48.872 22.6222C48.5988 21.9103 48.4622 21.154 48.4622 20.3533V19.9084C48.4622 18.9964 48.5915 18.1622 48.8499 17.4059C49.1083 16.6496 49.4775 15.9934 49.9575 15.4373C50.4448 14.8812 51.0355 14.4549 51.7296 14.1583C52.4237 13.8543 53.2064 13.7023 54.0777 13.7023C54.9269 13.7023 55.6801 13.8432 56.3372 14.1249C56.9944 14.4067 57.5445 14.8071 57.9876 15.3261C58.438 15.8451 58.7776 16.468 59.0065 17.1946C59.2354 17.9138 59.3499 18.7146 59.3499 19.597V20.9316H51.6972C51.7294 21.1965 51.7845 21.4486 51.8626 21.6879C52.0028 22.0957 52.1985 22.4479 52.4496 22.7445C52.708 23.0411 53.0181 23.2709 53.38 23.4341C53.7492 23.5972 54.1664 23.6787 54.6315 23.6787C55.2075 23.6787 55.7428 23.5675 56.2376 23.3451C56.7397 23.1152 57.1716 22.7704 57.5334 22.3107L59.0841 24.0013C58.833 24.3646 58.4897 24.7131 58.054 25.0468C57.6257 25.3804 57.1089 25.6548 56.5034 25.8698C55.8979 26.0774 55.2075 26.1812 54.4322 26.1812ZM51.7961 18.4403C51.7731 18.5559 51.753 18.6745 51.736 18.7962H56.2154V18.5515C56.2154 18.1066 56.1342 17.7099 55.9717 17.3614C55.8167 17.0055 55.5804 16.7238 55.2629 16.5162C54.9454 16.3085 54.5392 16.2047 54.0445 16.2047C53.6236 16.2047 53.2618 16.2974 52.9591 16.4828C52.6563 16.6682 52.409 16.9277 52.217 17.2613C52.0324 17.595 51.8921 17.988 51.7961 18.4403ZM64.3562 17.4234V25.9588H61.1553V13.9247H64.1569L64.2671 15.3026C64.6578 14.8036 65.1343 14.4147 65.6964 14.136C66.2797 13.8469 66.9554 13.7023 67.7233 13.7023C68.255 13.7023 68.7423 13.7838 69.1853 13.947C69.6284 14.1027 70.0086 14.3511 70.3262 14.6921C70.5561 14.9283 70.7491 15.2165 70.9051 15.5567C70.9575 15.4781 71.0119 15.4012 71.0682 15.3261C71.4596 14.8145 71.9432 14.4178 72.5192 14.136C73.0951 13.8469 73.7597 13.7023 74.5129 13.7023C75.0888 13.7023 75.6131 13.7875 76.0856 13.9581C76.5582 14.1212 76.9606 14.3844 77.2929 14.7477C77.6326 15.1037 77.891 15.5708 78.0682 16.1491C78.2528 16.7275 78.3451 17.4356 78.3451 18.2734V25.9588H75.1442V18.2734C75.1442 17.7173 75.0704 17.2947 74.9227 17.0055C74.7824 16.7089 74.5756 16.505 74.3024 16.3938C74.0366 16.2752 73.7191 16.2159 73.3499 16.2159C72.9659 16.2159 72.63 16.2937 72.342 16.4494C72.054 16.5977 71.814 16.8053 71.622 17.0723C71.5116 17.2258 71.417 17.3942 71.3383 17.5772C71.3429 17.6916 71.3451 17.8087 71.3451 17.9287V25.9588H68.1553V18.2846C68.1553 17.7359 68.0814 17.3132 67.9338 17.0166C67.7861 16.7201 67.5756 16.5124 67.3024 16.3938C67.0366 16.2752 66.7154 16.2159 66.3388 16.2159C65.9253 16.2159 65.5635 16.3011 65.2534 16.4717C64.9506 16.6422 64.6996 16.8795 64.5002 17.1835C64.4488 17.26 64.4008 17.34 64.3562 17.4234ZM84.005 30.5855V24.9136C84.3045 25.2491 84.6479 25.5233 85.035 25.7363C85.574 26.0329 86.2091 26.1812 86.9401 26.1812C87.6932 26.1812 88.3578 26.0292 88.9337 25.7252C89.5171 25.4138 90.0044 24.9837 90.3958 24.435C90.7871 23.8789 91.0825 23.2265 91.2818 22.4776C91.4886 21.7287 91.592 20.9168 91.592 20.0418V19.8083C91.592 18.8963 91.4886 18.0658 91.2818 17.3169C91.0825 16.5681 90.7834 15.923 90.3847 15.3817C89.9933 14.8404 89.506 14.4252 88.9227 14.136C88.3467 13.8469 87.6785 13.7023 86.9179 13.7023C86.1943 13.7023 85.563 13.8506 85.0239 14.1472C84.5931 14.3875 84.2156 14.7082 83.8914 15.1092L83.7724 13.9247H80.8151V30.5855H84.005ZM84.7249 23.3006C84.4138 23.0793 84.1738 22.7895 84.005 22.4312V17.4362C84.0725 17.293 84.15 17.1605 84.2375 17.0389C84.4295 16.772 84.6769 16.5681 84.9796 16.4272C85.2898 16.2863 85.6627 16.2159 86.0983 16.2159C86.5118 16.2159 86.8625 16.3085 87.1505 16.4939C87.4459 16.6719 87.6822 16.924 87.8594 17.2502C88.044 17.5765 88.1769 17.9583 88.2581 18.3958C88.3467 18.8258 88.391 19.2967 88.391 19.8083V20.0418C88.391 20.546 88.3504 21.0169 88.2692 21.4543C88.1954 21.8918 88.0661 22.2774 87.8815 22.611C87.7043 22.9447 87.4717 23.2079 87.1837 23.4007C86.8958 23.5861 86.5413 23.6787 86.1205 23.6787C85.5445 23.6787 85.0793 23.5527 84.7249 23.3006ZM96.9417 25.9588V13.9247H93.7407V25.9588H96.9417ZM94.0287 9.6316C93.7038 9.93561 93.5413 10.3212 93.5413 10.7883C93.5413 11.2554 93.7038 11.641 94.0287 11.945C94.3536 12.249 94.7892 12.401 95.3356 12.401C95.8747 12.401 96.3066 12.249 96.6315 11.945C96.9638 11.641 97.13 11.2554 97.13 10.7883C97.13 10.3212 96.9638 9.93561 96.6315 9.6316C96.3066 9.3276 95.8747 9.1756 95.3356 9.1756C94.7892 9.1756 94.3536 9.3276 94.0287 9.6316ZM102.768 25.9588V18.0213C102.872 17.7862 103.009 17.5811 103.177 17.4059C103.399 17.1835 103.672 17.0166 103.997 16.9054C104.329 16.7868 104.721 16.7275 105.171 16.7275C105.348 16.7275 105.544 16.7386 105.758 16.7608C105.98 16.7757 106.168 16.7942 106.323 16.8164L106.378 13.8469C106.26 13.8024 106.109 13.769 105.924 13.7468C105.74 13.7171 105.559 13.7023 105.382 13.7023C104.82 13.7023 104.322 13.8357 103.886 14.1027C103.451 14.3696 103.081 14.7477 102.779 15.2371C102.747 15.2902 102.715 15.3442 102.685 15.3993L102.579 13.9247H99.5777V25.9588H102.768ZM110.676 25.7363C111.414 26.0329 112.249 26.1812 113.179 26.1812C113.954 26.1812 114.645 26.0774 115.25 25.8698C115.856 25.6548 116.373 25.3804 116.801 25.0468C117.236 24.7131 117.58 24.3646 117.831 24.0013L116.28 22.3107C115.918 22.7704 115.486 23.1152 114.984 23.3451C114.49 23.5675 113.954 23.6787 113.378 23.6787C112.913 23.6787 112.496 23.5972 112.127 23.4341C111.765 23.2709 111.455 23.0411 111.196 22.7445C110.945 22.4479 110.75 22.0957 110.609 21.6879C110.531 21.4486 110.476 21.1965 110.444 20.9316H118.097V19.597C118.097 18.7146 117.982 17.9138 117.753 17.1946C117.524 16.468 117.185 15.8451 116.734 15.3261C116.291 14.8071 115.741 14.4067 115.084 14.1249C114.427 13.8432 113.674 13.7023 112.825 13.7023C111.953 13.7023 111.171 13.8543 110.476 14.1583C109.782 14.4549 109.192 14.8812 108.704 15.4373C108.224 15.9934 107.855 16.6496 107.597 17.4059C107.338 18.1622 107.209 18.9964 107.209 19.9084V20.3533C107.209 21.154 107.346 21.9103 107.619 22.6222C107.892 23.3266 108.283 23.9457 108.793 24.4795C109.31 25.0134 109.937 25.4323 110.676 25.7363ZM110.483 18.7962C110.5 18.6745 110.52 18.5559 110.543 18.4403C110.639 17.988 110.779 17.595 110.964 17.2613C111.156 16.9277 111.403 16.6682 111.706 16.4828C112.009 16.2974 112.37 16.2047 112.791 16.2047C113.286 16.2047 113.692 16.3085 114.01 16.5162C114.327 16.7238 114.563 17.0055 114.719 17.3614C114.881 17.7099 114.962 18.1066 114.962 18.5515V18.7962H110.483ZM38.6046 47.9026H36.5556V37.4478H34.6616V35.8685H36.5556V34.6006C36.5556 33.7331 36.7107 33.0027 37.0208 32.4096C37.3383 31.809 37.7924 31.3567 38.3831 31.0527C38.9738 30.7412 39.6753 30.5855 40.4876 30.5855C40.7238 30.5855 40.9601 30.6004 41.1964 30.63C41.4401 30.6597 41.6764 30.7042 41.9053 30.7635L41.7945 32.4429C41.6395 32.4058 41.4622 32.3799 41.2629 32.3651C41.0709 32.3502 40.8789 32.3428 40.6869 32.3428C40.2513 32.3428 39.8747 32.4318 39.5572 32.6098C39.2471 32.7803 39.0108 33.0324 38.8483 33.3661C38.6859 33.6997 38.6046 34.1112 38.6046 34.6006V35.8685H41.1521V37.4478H38.6046V47.9026ZM20.6062 42.7531H18.4797C18.3615 43.5094 18.1621 44.1581 17.8815 44.6994C17.6083 45.2407 17.2022 45.6559 16.6632 45.9451C16.1242 46.2343 15.4005 46.3788 14.4923 46.3788C13.7761 46.3788 13.1558 46.2305 12.6316 45.934C12.1073 45.63 11.6753 45.2147 11.3357 44.6883C10.996 44.1618 10.7413 43.5501 10.5714 42.8532C10.409 42.1562 10.3278 41.411 10.3278 40.6176V38.9827C10.3278 38.1226 10.4201 37.3403 10.6047 36.6359C10.7893 35.9315 11.0625 35.3272 11.4243 34.823C11.7935 34.3188 12.2476 33.9296 12.7866 33.6552C13.333 33.3809 13.9644 33.2437 14.6806 33.2437C15.515 33.2437 16.1906 33.392 16.7075 33.6886C17.2244 33.9852 17.6231 34.4078 17.9037 34.9565C18.1843 35.4978 18.3763 36.1466 18.4797 36.9029H20.6062C20.4955 35.8351 20.2038 34.8972 19.7312 34.089C19.266 33.2734 18.6126 32.6357 17.7708 32.176C16.929 31.7163 15.899 31.4864 14.6806 31.4864C13.6838 31.4864 12.7866 31.6644 11.9891 32.0203C11.1917 32.3762 10.5087 32.8841 9.9401 33.544C9.37891 34.2039 8.94695 34.9973 8.64421 35.9241C8.34885 36.8435 8.20117 37.8705 8.20117 39.0049V40.6176C8.20117 41.7521 8.34885 42.7827 8.64421 43.7096C8.94695 44.629 9.37522 45.4186 9.92902 46.0785C10.4828 46.731 11.1437 47.2352 11.9116 47.5911C12.6869 47.9471 13.5472 48.125 14.4923 48.125C15.7845 48.125 16.8626 47.8914 17.7265 47.4243C18.5904 46.9498 19.2587 46.3084 19.7312 45.5002C20.2038 44.692 20.4955 43.7763 20.6062 42.7531ZM30.3218 46.6306C30.2242 46.7333 30.1201 46.8347 30.0097 46.9349C29.6331 47.276 29.1827 47.5615 28.6584 47.7913C28.1416 48.0138 27.5582 48.125 26.9084 48.125C26.0962 48.125 25.3837 47.9656 24.7708 47.6468C24.1653 47.3279 23.6927 46.9016 23.3531 46.3677C23.0208 45.8264 22.8547 45.2221 22.8547 44.5548C22.8547 43.9097 22.9802 43.3425 23.2312 42.8532C23.4823 42.3564 23.8441 41.9449 24.3167 41.6186C24.7892 41.2849 25.3578 41.0328 26.0224 40.8623C26.6869 40.6918 27.429 40.6065 28.2486 40.6065H30.2755V39.65C30.2755 39.1755 30.1795 38.7639 29.9876 38.4155C29.803 38.0596 29.5224 37.7852 29.1458 37.5924C28.7692 37.3996 28.304 37.3033 27.7502 37.3033C27.2333 37.3033 26.7792 37.3922 26.3879 37.5702C26.0039 37.7481 25.7012 37.9817 25.4797 38.2709C25.2655 38.56 25.1584 38.8715 25.1584 39.2051H23.1094C23.1094 38.7751 23.2202 38.3487 23.4417 37.9261C23.6632 37.5035 23.9807 37.1216 24.3942 36.7805C24.8151 36.432 25.3172 36.1577 25.9005 35.9575C26.4913 35.7499 27.1484 35.6461 27.8721 35.6461C28.7434 35.6461 29.5113 35.7944 30.1759 36.091C30.8478 36.3875 31.3721 36.8361 31.7486 37.4367C32.1326 38.0299 32.3246 38.7751 32.3246 39.6722V45.2778C32.3246 45.6782 32.3578 46.1045 32.4243 46.5568C32.4981 47.0091 32.6052 47.3984 32.7455 47.7246V47.9026H30.6078C30.5044 47.6653 30.4232 47.3502 30.3641 46.9572C30.3477 46.846 30.3336 46.7372 30.3218 46.6306ZM30.2755 44.5192C30.2053 44.6593 30.1166 44.8009 30.0097 44.9441C29.7291 45.3297 29.3488 45.6559 28.8689 45.9228C28.3889 46.1898 27.8351 46.3232 27.2075 46.3232C26.7054 46.3232 26.2808 46.2343 25.9338 46.0563C25.5941 45.8709 25.3394 45.6225 25.1695 45.3111C24.9997 44.9997 24.9148 44.6549 24.9148 44.2768C24.9148 43.906 24.996 43.5835 25.1584 43.3092C25.3209 43.0274 25.5572 42.7938 25.8673 42.6085C26.1774 42.4231 26.5614 42.2859 27.0192 42.197C27.477 42.1006 27.9976 42.0524 28.5809 42.0524H30.2755V44.5192ZM45.8705 47.7024C46.5498 47.9841 47.3067 48.125 48.141 48.125C48.9311 48.125 49.6141 48.0138 50.1901 47.7913C50.7734 47.5689 51.2645 47.2797 51.6632 46.9238C52.0619 46.5679 52.3905 46.1935 52.6489 45.8005L51.4084 44.8106C51.0319 45.3074 50.5925 45.7041 50.0904 46.0007C49.5883 46.2973 48.9754 46.4456 48.2518 46.4456C47.6906 46.4456 47.1885 46.3381 46.7455 46.123C46.3098 45.908 45.9369 45.6114 45.6268 45.2333C45.3241 44.8551 45.0915 44.4177 44.929 43.9209C44.7881 43.4628 44.7112 42.9771 44.6984 42.4639H52.804V41.5408C52.804 40.6955 52.708 39.9169 52.516 39.2051C52.3241 38.4859 52.0287 37.8631 51.63 37.3366C51.2312 36.8028 50.718 36.3875 50.0904 36.091C49.4702 35.7944 48.7318 35.6461 47.8752 35.6461C47.2033 35.6461 46.5535 35.7832 45.9258 36.0576C45.2982 36.3319 44.737 36.736 44.2423 37.2699C43.7476 37.8037 43.3562 38.4562 43.0683 39.2274C42.7803 39.9911 42.6363 40.8623 42.6363 41.841V42.3082C42.6363 43.1535 42.7655 43.932 43.024 44.6438C43.2824 45.3556 43.6516 45.971 44.1315 46.4901C44.6189 47.0091 45.1985 47.4132 45.8705 47.7024ZM44.7583 40.7845C44.7971 40.4753 44.854 40.1861 44.929 39.9169C45.0841 39.3608 45.3019 38.89 45.5825 38.5044C45.8631 38.1189 46.1991 37.8297 46.5904 37.6369C46.9818 37.4367 47.41 37.3366 47.8752 37.3366C48.5767 37.3366 49.1305 37.4997 49.5366 37.826C49.9427 38.1522 50.2381 38.5675 50.4227 39.0717C50.6147 39.5759 50.7254 40.0949 50.755 40.6287V40.7845H44.7583Z" fill="white"/>
</svg>
