<svg width="25" height="24" viewBox="0 0 25 24" fill="none" xmlns="http://www.w3.org/2000/svg">
<path fill-rule="evenodd" clip-rule="evenodd" d="M7.83325 5.5V19.5H16.8333V5.5H7.83325ZM7.33325 4C6.78097 4 6.33325 4.44772 6.33325 5V20C6.33325 20.5523 6.78097 21 7.33325 21H17.3333C17.8855 21 18.3333 20.5523 18.3333 20V5C18.3333 4.44772 17.8855 4 17.3333 4H7.33325Z" fill="white" />
<path fill-rule="evenodd" clip-rule="evenodd" d="M15.3333 7.5C15.3333 7.77614 15.1094 8 14.8333 8H9.83325C9.55711 8 9.33325 7.77614 9.33325 7.5C9.33325 7.22386 9.55711 7 9.83325 7H14.8333C15.1094 7 15.3333 7.22386 15.3333 7.5Z" fill="white" />
<path fill-rule="evenodd" clip-rule="evenodd" d="M15.3333 10.5C15.3333 10.7761 15.1094 11 14.8333 11H9.83325C9.55711 11 9.33325 10.7761 9.33325 10.5C9.33325 10.2239 9.55711 10 9.83325 10H14.8333C15.1094 10 15.3333 10.2239 15.3333 10.5Z" fill="white" />
<path fill-rule="evenodd" clip-rule="evenodd" d="M15.3333 13.5C15.3333 13.7761 15.1094 14 14.8333 14H9.83325C9.55711 14 9.33325 13.7761 9.33325 13.5C9.33325 13.2239 9.55711 13 9.83325 13H14.8333C15.1094 13 15.3333 13.2239 15.3333 13.5Z" fill="white" />
</svg>
