<svg width="21" height="20" viewBox="0 0 21 20" fill="none" xmlns="http://www.w3.org/2000/svg">
<path d="M10.6667 0C9.35353 0 8.05317 0.258658 6.83991 0.761205C5.62666 1.26375 4.52427 2.00035 3.59568 2.92893C1.72032 4.8043 0.666748 7.34784 0.666748 10C0.666748 12.6522 1.72032 15.1957 3.59568 17.0711C4.52427 17.9997 5.62666 18.7362 6.83991 19.2388C8.05317 19.7413 9.35353 20 10.6667 20C13.3189 20 15.8625 18.9464 17.7378 17.0711C19.6132 15.1957 20.6667 12.6522 20.6667 10C20.6667 8.68678 20.4081 7.38642 19.9055 6.17317C19.403 4.95991 18.6664 3.85752 17.7378 2.92893C16.8092 2.00035 15.7068 1.26375 14.4936 0.761205C13.2803 0.258658 11.98 0 10.6667 0ZM5.73675 16.28C6.16675 15.38 8.78675 14.5 10.6667 14.5C12.5467 14.5 15.1667 15.38 15.5967 16.28C14.1961 17.396 12.4576 18.0026 10.6667 18C8.80675 18 7.09675 17.36 5.73675 16.28ZM17.0267 14.83C15.5967 13.09 12.1267 12.5 10.6667 12.5C9.20675 12.5 5.73675 13.09 4.30675 14.83C3.24293 13.4446 2.66641 11.7467 2.66675 10C2.66675 5.59 6.25675 2 10.6667 2C15.0767 2 18.6667 5.59 18.6667 10C18.6667 11.82 18.0467 13.5 17.0267 14.83ZM10.6667 4C8.72675 4 7.16675 5.56 7.16675 7.5C7.16675 9.44 8.72675 11 10.6667 11C12.6067 11 14.1667 9.44 14.1667 7.5C14.1667 5.56 12.6067 4 10.6667 4ZM10.6667 9C10.2689 9 9.88739 8.84196 9.60609 8.56066C9.32478 8.27936 9.16675 7.89782 9.16675 7.5C9.16675 7.10218 9.32478 6.72064 9.60609 6.43934C9.88739 6.15804 10.2689 6 10.6667 6C11.0646 6 11.4461 6.15804 11.7274 6.43934C12.0087 6.72064 12.1667 7.10218 12.1667 7.5C12.1667 7.89782 12.0087 8.27936 11.7274 8.56066C11.4461 8.84196 11.0646 9 10.6667 9Z" fill="white" />
</svg>
