<svg width="25" height="25" viewBox="0 0 25 25" fill="none" xmlns="http://www.w3.org/2000/svg">
<path fill-rule="evenodd" clip-rule="evenodd" d="M20.7771 18.89C20.7161 18.8445 20.6532 18.8016 20.5881 18.7616C20.5646 18.7472 20.5408 18.7331 20.5168 18.7194C20.4866 18.7022 20.4561 18.6856 20.4251 18.6696C20.3809 18.6468 20.3359 18.6252 20.2902 18.605C20.2113 18.57 20.1303 18.539 20.0473 18.5122C19.9589 18.4835 19.8683 18.4596 19.7758 18.4408C19.6122 18.4075 19.4428 18.39 19.2693 18.39C18.7035 18.39 18.1813 18.5761 17.7613 18.89H20.7771ZM8.953 18.4427C8.93875 18.4457 8.92454 18.4488 8.91038 18.452C8.82291 18.4717 8.7372 18.496 8.65348 18.5246C8.59069 18.546 8.52903 18.5698 8.46862 18.5959C8.40338 18.6241 8.33959 18.655 8.27736 18.6884C8.26072 18.6973 8.24418 18.7064 8.22777 18.7157C8.20154 18.7306 8.17562 18.7459 8.15 18.7617C8.08499 18.8016 8.02199 18.8445 7.96106 18.89C7.35083 19.3461 6.95588 20.0722 6.95588 20.89C6.95588 22.2707 8.08096 23.39 9.46882 23.39C10.8567 23.39 11.9818 22.2707 11.9818 20.89C11.9818 20.0722 11.5871 19.3461 10.9768 18.89H7.96106C8.02199 18.8445 8.08499 18.8016 8.15 18.7617C8.17562 18.7459 8.20154 18.7306 8.22777 18.7157C8.24418 18.7064 8.26072 18.6973 8.27736 18.6884C8.33959 18.655 8.40338 18.6241 8.46862 18.5959C8.52903 18.5698 8.59069 18.546 8.65348 18.5246C8.75076 18.4914 8.85074 18.464 8.953 18.4427ZM9.46882 20.39C9.19125 20.39 8.96624 20.6139 8.96624 20.89C8.96624 21.1662 9.19125 21.39 9.46882 21.39C9.7464 21.39 9.97141 21.1662 9.97141 20.89C9.97141 20.6139 9.7464 20.39 9.46882 20.39Z" fill="white" />
<path fill-rule="evenodd" clip-rule="evenodd" d="M20.5881 18.7616C20.5646 18.7472 20.5408 18.7331 20.5168 18.7194C20.4866 18.7022 20.4561 18.6856 20.4251 18.6696C20.4807 18.6983 20.5351 18.729 20.5881 18.7616Z" fill="white" />
<path fill-rule="evenodd" clip-rule="evenodd" d="M1.92998 1.14001C1.37484 1.14001 0.924805 1.58773 0.924805 2.14001C0.924805 2.6923 1.37484 3.14001 1.92998 3.14001H3.39769L5.09769 10.2433L6.22774 15.1149C6.24865 15.205 6.28144 15.29 6.32423 15.3682L6.98321 18.1216C7.09102 18.5721 7.4956 18.89 7.96106 18.89C8.02199 18.8445 8.08499 18.8016 8.15 18.7617C8.17562 18.7459 8.20154 18.7306 8.22777 18.7157C8.24418 18.7064 8.26072 18.6973 8.27736 18.6884C8.33959 18.655 8.40338 18.6241 8.46862 18.5959C8.52903 18.5698 8.59069 18.546 8.65348 18.5246C8.7372 18.496 8.82291 18.4717 8.91038 18.452C8.92454 18.4488 8.93875 18.4457 8.953 18.4427C9.11949 18.4082 9.29202 18.39 9.46882 18.39C10.0347 18.39 10.5568 18.5761 10.9768 18.89H17.7613C18.1813 18.5761 18.7035 18.39 19.2693 18.39C19.4428 18.39 19.6122 18.4075 19.7758 18.4408C19.8683 18.4596 19.9589 18.4835 20.0473 18.5122C20.1303 18.539 20.2113 18.57 20.2902 18.605C20.3359 18.6252 20.3809 18.6468 20.4251 18.6696C20.4561 18.6856 20.4866 18.7022 20.5168 18.7194C20.5408 18.7331 20.5646 18.7472 20.5881 18.7616C20.6532 18.8016 20.7161 18.8445 20.7771 18.89C21.3322 18.89 21.7823 18.4423 21.7823 17.89C21.7823 17.3377 21.3322 16.89 20.7771 16.89H8.75501L8.51568 15.89H20.7771C21.2452 15.89 21.6513 15.5686 21.7565 15.1149L24.0182 5.36487C24.0871 5.06793 24.0161 4.75595 23.8254 4.51746C23.6347 4.27898 23.3451 4.14001 23.0387 4.14001H5.70357L5.16948 1.90839C5.06167 1.45793 4.65709 1.14001 4.19164 1.14001H1.92998ZM19.9775 13.89H8.03702L7.055 9.78677L6.20908 6.14001H21.7752L19.9775 13.89ZM10.9768 18.89C10.5568 18.5761 10.0347 18.39 9.46882 18.39C9.29202 18.39 9.11949 18.4082 8.953 18.4427C8.93875 18.4457 8.92454 18.4488 8.91038 18.452C8.82291 18.4717 8.7372 18.496 8.65348 18.5246C8.59069 18.546 8.52903 18.5698 8.46862 18.5959C8.40338 18.6241 8.33959 18.655 8.27736 18.6884C8.26072 18.6973 8.24418 18.7064 8.22777 18.7157C8.20154 18.7306 8.17562 18.7459 8.15 18.7617C8.08499 18.8016 8.02199 18.8445 7.96106 18.89H10.9768Z" fill="white" />
<path fill-rule="evenodd" clip-rule="evenodd" d="M20.7771 18.89C20.7161 18.8445 20.6532 18.8016 20.5881 18.7616C20.5646 18.7472 20.5408 18.7331 20.5168 18.7194C20.4866 18.7022 20.4561 18.6856 20.4251 18.6696C20.3809 18.6468 20.3359 18.6252 20.2902 18.605C20.2113 18.57 20.1303 18.539 20.0473 18.5122C19.9589 18.4835 19.8683 18.4596 19.7758 18.4408C19.6122 18.4075 19.4428 18.39 19.2693 18.39C18.7035 18.39 18.1813 18.5761 17.7613 18.89H20.7771Z" fill="white" />
<path fill-rule="evenodd" clip-rule="evenodd" d="M20.7771 18.89C20.777 18.89 20.7771 18.89 20.7771 18.89H17.7613C17.1511 19.3461 16.7564 20.0722 16.7564 20.89C16.7564 22.2707 17.8815 23.39 19.2693 23.39C20.6572 23.39 21.7823 22.2707 21.7823 20.89C21.7823 20.0722 21.3874 19.3461 20.7771 18.89ZM18.7667 20.89C18.7667 20.6139 18.9917 20.39 19.2693 20.39C19.5469 20.39 19.7719 20.6139 19.7719 20.89C19.7719 21.1662 19.5469 21.39 19.2693 21.39C18.9917 21.39 18.7667 21.1662 18.7667 20.89Z" fill="white" fill-opacity="0.74"/>
</svg>
