<svg width="19" height="20" viewBox="0 0 19 20" fill="none" xmlns="http://www.w3.org/2000/svg">
<path d="M18.8651 17.6674L12.7784 11.5806C13.7229 10.3595 14.2339 8.86658 14.2339 7.29626C14.2339 5.41658 13.5003 3.65408 12.1737 2.32517C10.8472 0.996264 9.07998 0.265015 7.20264 0.265015C5.32529 0.265015 3.55811 0.998608 2.23154 2.32517C0.902637 3.65173 0.171387 5.41658 0.171387 7.29626C0.171387 9.17361 0.90498 10.9408 2.23154 12.2674C3.55811 13.5963 5.32295 14.3275 7.20264 14.3275C8.77295 14.3275 10.2636 13.8166 11.4847 12.8744L17.5714 18.9588C17.5892 18.9766 17.6104 18.9908 17.6338 19.0005C17.6571 19.0101 17.6821 19.0151 17.7073 19.0151C17.7326 19.0151 17.7576 19.0101 17.7809 19.0005C17.8042 18.9908 17.8254 18.9766 17.8433 18.9588L18.8651 17.9392C18.883 17.9214 18.8972 17.9002 18.9068 17.8769C18.9165 17.8535 18.9215 17.8285 18.9215 17.8033C18.9215 17.778 18.9165 17.753 18.9068 17.7297C18.8972 17.7064 18.883 17.6852 18.8651 17.6674ZM10.9151 11.0088C9.92139 12.0002 8.6042 12.5463 7.20264 12.5463C5.80107 12.5463 4.48389 12.0002 3.49014 11.0088C2.49873 10.015 1.95264 8.69783 1.95264 7.29626C1.95264 5.8947 2.49873 4.57517 3.49014 3.58376C4.48389 2.59236 5.80107 2.04626 7.20264 2.04626C8.6042 2.04626 9.92373 2.59001 10.9151 3.58376C11.9065 4.57751 12.4526 5.8947 12.4526 7.29626C12.4526 8.69783 11.9065 10.0174 10.9151 11.0088Z" fill="white"/>
</svg>
